<?xml version="1.0" encoding="UTF-8"?>
<svg id="Layer_1" data-name="Layer 1" xmlns="http://www.w3.org/2000/svg" viewBox="0 0 294.29 369.99">
  <defs>
    <style>
      .cls-1 {
        fill: #fff;
        stroke-width: 0px;
      }
    </style>
  </defs>
  <g id="WvJCcv">
    <g>
      <path class="cls-1" d="M.39,149.27c10.85,6.96,20.98,13.42,31.06,19.95,28.89,18.73,57.6,37.76,86.71,56.16,19.43,12.27,39.46,11.9,58.79-.5,37.52-24.09,74.85-48.48,112.25-72.75,1.31-.85,2.65-1.64,4.63-2.86.11,2.15.28,3.79.28,5.42,0,34.42.06,68.83-.03,103.25-.06,21.31-15.96,37.16-37.46,37.3-23.35.14-46.7.04-70.05.04-49.4,0-98.81.03-148.21-.02-19.23-.02-34.04-11.89-37.62-29.95-.37-1.86-.58-3.77-.59-5.66-.03-35.53-.01-71.05,0-106.58,0-.93.11-1.87.24-3.79Z"/>
      <path class="cls-1" d="M147.24,74.88c35.41,0,70.84.53,106.24-.2,22.31-.46,42.42,15.24,40.72,41.5-.17,2.65-.91,4.21-3.18,5.68-39.71,25.66-79.35,51.41-119,77.15-2.79,1.81-5.55,3.69-8.39,5.43-11.08,6.8-22.19,6.92-33.16-.17-23.46-15.14-46.87-30.36-70.29-45.55-17.97-11.65-35.79-23.54-53.98-34.84C1.31,120.86-.15,117.63.01,112.14c.5-17.57,10.93-31.62,27.77-35.95,3.94-1.01,8.16-1.25,12.26-1.26,35.73-.09,71.46-.05,107.2-.06Z"/>
    </g>
  </g>
  <g id="drKuoQ.tif">
    <path class="cls-1" d="M147.34,0c13.74,16.57,26.35,31.55,38.65,46.77,3.41,4.21.96,6.86-3.73,6.89-23.24.15-46.48.16-69.71,0-5.49-.04-7.21-2.99-3.55-7.46,12.23-14.94,24.64-29.73,38.34-46.21Z"/>
  </g>
  <g id="drKuoQ.tif-2" data-name="drKuoQ.tif">
    <path class="cls-1" d="M147.22,369.99c-13.74-16.57-26.35-31.55-38.65-46.77-3.41-4.21-.96-6.86,3.73-6.89,23.24-.15,46.48-.16,69.71,0,5.49.04,7.21,2.99,3.55,7.46-12.23,14.94-24.64,29.73-38.34,46.21Z"/>
  </g>
</svg>