<?xml version="1.0" encoding="UTF-8"?>
<svg id="Layer_1" data-name="Layer 1" xmlns="http://www.w3.org/2000/svg" viewBox="0 0 328.53 360.02">
  <defs>
    <style>
      .cls-1 {
        fill: #fff;
        stroke-width: 0px;
      }
    </style>
  </defs>
  <path class="cls-1" d="M217.97,95.78c-5.83,0-11.56,2.74-15.14,7.86-2.82,4.01-3.9,8.89-3.04,13.72.86,4.81,3.55,9.01,7.58,11.8,8.32,5.72,19.84,3.73,25.68-4.57,2.83-4.01,3.91-8.87,3.05-13.7-.86-4.81-3.56-9.01-7.59-11.8-3.21-2.23-6.88-3.31-10.54-3.31Z"/>
  <path class="cls-1" d="M328.1,154.51l-24.15-135.83c-1.07-5.96-4.41-11.14-9.4-14.61-5-3.49-11.05-4.74-17.05-3.73l-136.46,24.18c-10.18,1.81-13.12,6.45-18.45,14.89-1.1,1.76-2.34,3.71-3.75,5.84L8.3,202.73c-7.03,10.02-9.73,22.16-7.58,34.17,2.14,12.01,8.85,22.47,18.89,29.44l122.97,85.49c7.96,5.53,17.1,8.18,26.16,8.18,14.51,0,28.8-6.8,37.73-19.51l110.57-157.52,2.68-3.73c5.73-7.93,10.26-14.17,8.38-24.75ZM255.55,140.25c-8.93,12.71-23.21,19.54-37.71,19.54-9.06,0-18.21-2.68-26.17-8.21-10.04-6.97-16.76-17.43-18.9-29.44-2.14-12.01.55-24.16,7.58-34.17,14.48-20.66,43.14-25.73,63.88-11.33,10.06,6.99,16.76,17.47,18.9,29.48,2.13,12.01-.56,24.14-7.58,34.13Z"/>
</svg>