<?xml version="1.0" encoding="UTF-8"?>
<svg id="Layer_1" data-name="Layer 1" xmlns="http://www.w3.org/2000/svg" viewBox="0 0 274.1 324.84">
  <defs>
    <style>
      .cls-1 {
        fill: #fff;
        stroke-width: 0px;
      }
    </style>
  </defs>
  <path class="cls-1" d="M175.33,179.49v54.92c0,25.6-20.84,46.44-46.48,46.44s-46.48-20.84-46.48-46.44v-119.31c22.76-9.11,37.26-30.45,37.26-55.33C119.64,26.81,92.81,0,59.83,0S0,26.81,0,59.77c0,24.28,14.79,46.02,37.26,55.29v119.36c0,49.85,40.6,90.43,90.5,90.43,47.26,0,85.95-35.55,90.18-82.12h33.7l-76.31-63.23ZM76.17,59.77c0,8.55-7.23,15.77-15.8,15.77s-15.79-7.23-15.79-15.77,7.23-15.77,15.79-15.77,15.8,7.23,15.8,15.77Z"/>
  <path class="cls-1" d="M274.1,115.7c0,1.62-.98,3.07-2.49,3.66l-23.36,8.96c-8.22,3.15-14.66,9.72-17.69,18.02l-8.88,24.45c-.06.18-.2.31-.29.48-.08.14-.15.27-.24.39-.14.19-.29.36-.46.51-.27.24-.57.46-.91.61-.21.08-.42.16-.64.19-.21.05-.42.08-.64.08l-.69-.08c-.21-.03-.42-.11-.64-.19-.35-.15-.66-.37-.93-.62-.17-.15-.31-.31-.45-.49-.08-.11-.14-.22-.21-.33-.11-.18-.27-.33-.34-.54l-8.88-24.45c-3-8.29-9.44-14.86-17.66-18.02l-23.36-8.96c-1.51-.58-2.52-2.04-2.52-3.66,0-1.7,1.11-3.21,2.73-3.71l21.37-6.73c9.25-2.91,16.55-10.07,19.68-19.24l8.7-25.67c.11-.29.24-.56.4-.79.11-.16.21-.32.37-.45.32-.34.72-.61,1.19-.79.13-.05.29-.11.45-.13.24-.08.5-.11.77-.11s.53.03.77.11c.16.03.32.08.45.13.42.16.8.42,1.11.72.13.13.24.26.34.4.21.29.4.58.5.93l8.7,25.67c3.1,9.17,10.42,16.32,19.65,19.24l21.37,6.73c1.64.5,2.73,2.01,2.73,3.71Z"/>
</svg>