<?xml version="1.0" encoding="UTF-8"?>
<svg id="Layer_1" data-name="Layer 1" xmlns="http://www.w3.org/2000/svg" viewBox="0 0 289.77 332.58">
  <defs>
    <style>
      .cls-1 {
        fill: #fff;
        stroke-width: 0px;
      }
    </style>
  </defs>
  <path class="cls-1" d="M265.18,215.22l-103.81,63.63c-5.09,3.13-10.78,4.68-16.48,4.68s-11.41-1.55-16.48-4.68l-103.81-63.63-19,12.96C1.93,230.64-.09,234.62,0,239.05c.11,4.46,2.35,8.36,6.14,10.69l132.09,80.96c4.1,2.51,9.2,2.54,13.34-.04l132.09-80.92c3.78-2.32,6.02-6.23,6.12-10.69.11-4.42-1.93-8.4-5.58-10.87l-19-12.96Z"/>
  <path class="cls-1" d="M265.18,147.29l-34.85,21.35-8.81,5.4-8.83,5.41-51.33,31.45c-5.09,3.13-10.78,4.72-16.48,4.72s-11.43-1.58-16.51-4.72l-51.32-31.45-8.82-5.41-8.81-5.4-34.85-21.36-18.98,12.94C1.93,162.73-.11,166.71,0,171.17c.11,4.42,2.35,8.33,6.14,10.65l17.89,10.97,8.81,5.4,8.82,5.41,96.57,59.19c4.1,2.51,9.2,2.54,13.34-.04l96.55-59.15,8.83-5.41,8.81-5.4,17.9-10.97c3.78-2.32,6.01-6.23,6.12-10.69.11-4.42-1.93-8.4-5.6-10.91l-18.98-12.93Z"/>
  <path class="cls-1" d="M24,124.85l8.83,5.41,8.81,5.4,34.85,21.35,8.82,5.4,8.82,5.4,44.1,27.02c4.11,2.51,9.2,2.51,13.32,0l44.1-27.01,8.83-5.41,8.81-5.4,34.85-21.35,8.82-5.4,8.82-5.4,17.88-10.95c3.78-2.32,6.01-6.23,6.12-10.69.11-4.42-1.93-8.4-5.6-10.91L152.08,2.25c-2.19-1.51-4.68-2.25-7.18-2.25s-5.01.74-7.22,2.25L5.61,92.31C1.93,94.82-.11,98.8,0,103.25c.11,4.42,2.35,8.33,6.14,10.65l17.87,10.94Z"/>
</svg>