<?xml version="1.0" encoding="UTF-8"?>
<svg id="Layer_2" data-name="Layer 2" xmlns="http://www.w3.org/2000/svg" viewBox="0 0 299.71 316">
  <defs>
    <style>
      .cls-1 {
        fill: #fff;
        stroke-width: 0px;
      }
    </style>
  </defs>
  <g id="rh6YOj">
    <g>
      <path class="cls-1" d="M259.09,300.45q-2.42,15.54-18.25,15.54c-7.81,0-15.63.02-23.44-.01-9.6-.04-10.2-.67-10.66-10.39-.08-1.65-.37-3.29-.6-5.25h-111.9c-.44.72-.87,1.11-.91,1.53q-1.35,14.09-16.05,14.11c-8.3,0-16.6.03-24.91,0-9.98-.04-10.55-.63-10.93-10.9-.05-1.42-.21-2.85-.34-4.59-2.16-.32-4.04-.57-5.9-.87C13.86,296.16.19,280.91.14,259.31-.04,186.06-.06,112.81.16,39.56.23,17.4,17.76.15,39.94.11c73.25-.15,146.5-.14,219.75,0,22.46.04,39.71,16.81,39.79,39.26.28,73.49.29,146.99.09,220.48-.05,20.21-12.98,35.07-32.81,39.27-2.57.54-5.19.91-7.67,1.34ZM20.21,149.67h.07c0,35.38-.02,70.77.01,106.15.02,16.54,7.19,23.86,23.46,23.86,70.77.03,141.54.03,212.31,0,15.69,0,23.36-7.6,23.37-23.34.04-71.01.03-142.03-.03-213.04-.01-15.85-7.44-23.04-23.45-23.04-70.77-.01-141.54-.01-212.31,0-15.76,0-23.43,7.64-23.43,23.25,0,35.38,0,70.77,0,106.15Z"/>
      <path class="cls-1" d="M262.02,82.99c-2.99.16-4.92.19-6.84.37-7.74.73-11.48,4.5-11.67,12.25-.19,7.81-.16,15.63,0,23.44.18,8.46,3.4,12.22,11.81,12.69,5.13.29,7.06,2.24,6.73,7.12-.15,2.19-.05,4.39-.05,6.59-.01,11.31-.17,10.84-10.72,14.48-3.13,1.08-6.88,5.41-7.21,8.58-.99,9.42-.75,19.01-.36,28.51.24,5.86,4.08,9.18,9.99,9.77,2.39.24,4.8.28,7.87.45,0,16.59.22,32.86-.29,49.11-.06,1.92-3.91,4.5-6.47,5.35-2.87.95-6.28.3-9.45.3-64.94,0-129.89.01-194.83.02-11.5,0-12.87-1.35-12.87-13.16-.01-65.92,0-131.84.02-197.76,0-11.84,1.27-13.16,12.82-13.16,66.41-.02,132.82-.02,199.23,0,10.86,0,12.25,1.38,12.3,12.13.05,10.91.01,21.81.01,32.92ZM167.02,133.65c-4.6-23.47-31.55-41.35-57.61-38.55-28.9,3.1-50.27,28.16-49.15,57.62,1.06,27.86,24.53,51.27,52.44,52.31,25.62.95,51.62-17.63,54.08-38.64q-11.46-1.6-17.72,7.29c-10.37,14.72-28.82,21.04-45.95,15.74-17.4-5.39-29.28-21.53-29.15-39.62.13-18.2,12.1-34.23,29.45-39.44,17.12-5.14,36.34.92,45.53,16.36,4.94,8.29,10.63,8.18,18.08,6.93ZM166.19,158.95c7.07,0,14.14-.11,21.21.03,6.24.12,10.58-1.83,10.75-8.87.15-6.13-3.07-8.99-10.52-9.06-12.92-.11-25.85-.25-38.76.07-5.55.14-9.01-1.1-12.33-6.31-8.24-12.92-26.03-14.97-37.85-5.3-12.15,9.94-13.22,27.57-2.37,38.88,10.4,10.85,29.51,11.31,38.12-.89,5.65-8.01,11.76-9.33,20.06-8.61,3.87.34,7.8.06,11.7.05Z"/>
    </g>
  </g>
</svg>